<svg width="56" height="56" viewBox="0 0 56 56" fill="none" xmlns="http://www.w3.org/2000/svg">
<rect width="56" height="56" rx="28" fill="#F5F5FF"/>
<rect x="8" y="8" width="40" height="40" rx="20" fill="#E1E1FE"/>
<path d="M22.18 38.7519C22.08 38.7519 21.97 38.7419 21.88 38.7319L19.71 38.4319C18.67 38.2919 17.73 37.3619 17.57 36.3019L17.27 34.1119C17.17 33.4119 17.47 32.5019 17.97 31.9919L22.36 27.6019C21.65 24.7619 22.47 21.7619 24.56 19.6919C27.8 16.4619 33.07 16.4519 36.32 19.6919C37.0936 20.4627 37.7067 21.3792 38.1239 22.3885C38.541 23.3978 38.7538 24.4798 38.75 25.5719C38.75 27.7919 37.89 29.8819 36.32 31.4519C34.22 33.5319 31.23 34.3519 28.41 33.6319L24.01 38.0219C23.59 38.4619 22.84 38.7519 22.18 38.7519ZM30.43 18.7619C28.68 18.7619 26.94 19.4219 25.61 20.7519C24.7272 21.629 24.102 22.7314 23.8022 23.9392C23.5025 25.147 23.5398 26.4138 23.91 27.6019C23.99 27.8719 23.92 28.1519 23.72 28.3519L19.02 33.0519C18.85 33.2219 18.71 33.6619 18.74 33.8919L19.04 36.0819C19.1 36.4619 19.51 36.8919 19.89 36.9419L22.07 37.2419C22.31 37.2819 22.75 37.1419 22.92 36.9719L27.64 32.2619C27.84 32.0619 28.13 32.0019 28.39 32.0819C30.8 32.8419 33.43 32.1919 35.23 30.3919C36.51 29.1119 37.22 27.3919 37.22 25.5719C37.22 23.7419 36.51 22.0319 35.23 20.7519C34.6018 20.1185 33.854 19.6164 33.0299 19.2747C32.2058 18.9331 31.3221 18.7587 30.43 18.7619Z" fill="#1E22FB"/>
<path d="M25.188 36.54C24.998 36.54 24.808 36.47 24.658 36.32L22.358 34.02C22.2185 33.8789 22.1403 33.6884 22.1403 33.49C22.1403 33.2916 22.2185 33.1011 22.358 32.96C22.648 32.67 23.128 32.67 23.418 32.96L25.718 35.26C26.008 35.55 26.008 36.03 25.718 36.32C25.568 36.47 25.378 36.54 25.188 36.54ZM30.5 27.75C29.26 27.75 28.25 26.74 28.25 25.5C28.25 24.26 29.26 23.25 30.5 23.25C31.74 23.25 32.75 24.26 32.75 25.5C32.75 26.74 31.74 27.75 30.5 27.75ZM30.5 24.75C30.09 24.75 29.75 25.09 29.75 25.5C29.75 25.91 30.09 26.25 30.5 26.25C30.91 26.25 31.25 25.91 31.25 25.5C31.25 25.09 30.91 24.75 30.5 24.75Z" fill="#1E22FB"/>
</svg>
