<svg width="24" height="24" fill="none" xmlns="http://www.w3.org/2000/svg">
    <rect width="24" height="24" rx="12" fill="#DCFCE7"/>
    <g clip-path="url(#a)">
        <path d="M12.16 12.362a1.535 1.535 0 0 1-1.533-1.534c0-.845.688-1.533 1.533-1.533s1.533.688 1.533 1.533c0 .846-.688 1.534-1.533 1.534Zm0-2.667a1.136 1.136 0 0 0-1.133 1.133 1.136 1.136 0 0 0 1.133 1.134 1.136 1.136 0 0 0 1.133-1.134 1.136 1.136 0 0 0-1.133-1.133Zm2.29 5.333c-.109 0-.2-.09-.2-.2 0-.92-.938-1.666-2.09-1.666s-2.09.746-2.09 1.666c0 .11-.091.2-.2.2-.11 0-.2-.09-.2-.2 0-1.138 1.117-2.066 2.49-2.066 1.373 0 2.49.928 2.49 2.066 0 .11-.09.2-.2.2Z" fill="#15803D"/>
    </g>
    <path d="M12 18.88A6.886 6.886 0 0 1 5.12 12c0-3.795 3.2-6.88 6.88-6.88A6.886 6.886 0 0 1 18.88 12 6.886 6.886 0 0 1 12 18.88Zm0-13.44c-3.264 0-6.56 2.88-6.56 6.56 0 3.68 2.56 6.24 6.56 6.56 4.32-.32 6.56-3.52 6.56-6.56 0-3.68-3.296-6.56-6.56-6.56Z" fill="#16A34A"/>
    <defs>
        <clipPath id="a">
            <path fill="#fff" transform="translate(8.96 8.961)" d="M0 0h6.4v6.4H0z"/>
        </clipPath>
    </defs>
</svg>